<?xml version="1.0" encoding="UTF-8"?>
<svg width="298px" height="57px" viewBox="0 0 298 57" version="1.1" xmlns="http://www.w3.org/2000/svg" xmlns:xlink="http://www.w3.org/1999/xlink">
    <!-- Generator: Sketch 48.2 (47327) - http://www.bohemiancoding.com/sketch -->
    <title>casio_logo</title>
    <desc>Created with Sketch.</desc>
    <defs></defs>
    <g id="Page-1" stroke="none" stroke-width="1" fill="none" fill-rule="evenodd">
        <g id="casio_logo" fill="#404040" fill-rule="nonzero">
            <path d="M253.299993,41.8498134 C250.816663,41.2223144 250.195832,39.9673064 249.885412,37.4573004 C249.264582,33.3785319 249.264582,23.3384878 249.885412,18.9459749 C250.195832,16.7497234 251.437502,15.4947154 253.299993,14.8672164 C255.472913,14.2397074 275.339583,13.9259629 277.512493,14.8672164 C279.374993,15.4947154 279.995833,16.7497234 280.306242,18.6322304 C281.237492,22.7109889 281.237492,33.0647874 280.306242,37.1435459 C279.995833,39.0260529 279.374993,39.9673064 277.512493,40.9085599 C275.650003,42.4773123 256.093743,42.4773123 253.299993,41.8498134 Z M284.031243,1.06215839 C278.133332,-0.192849645 255.472913,-0.506594072 246.470833,1.06215839 C239.641673,2.31716642 234.364583,7.33717834 232.812493,13.6122084 C231.570833,20.8284819 231.570833,36.8298014 232.812493,43.4185658 C234.054163,49.3798515 239.020823,54.7136179 246.470833,55.9686158 C254.231243,57.5373784 277.202083,57.2236239 284.341663,55.6548714 C292.722903,53.7723644 296.137503,47.4973445 297.068753,43.4185658 C298.310413,37.1435459 298.310413,21.1422364 297.068753,13.6122084 C295.516653,7.02342381 289.929163,2.31716642 284.031243,1.06215839 Z M206.116663,1.37591292 L223.189583,1.37591292 L223.189583,55.6548714 L206.116663,55.6548714 L206.116663,1.37591292 Z M178.800003,34.9472944 C181.593743,35.5747934 182.214583,37.7710448 182.214583,39.6535518 C182.214583,41.5360588 181.904163,43.7323204 178.800003,44.0460749 C175.385413,44.6735739 163.900003,44.6735739 159.554163,44.0460749 C157.691663,43.7323204 155.518753,43.7323204 154.897913,40.2810609 L154.897913,39.3398074 L137.824993,39.3398074 C137.824993,39.6535518 137.824993,40.5948053 138.135423,41.8498134 C138.756253,49.0660969 141.550003,54.0861088 149.620833,55.6548714 C156.139583,56.9098693 180.662493,57.2236239 188.112493,55.6548714 C196.804162,53.7723644 198.977082,45.9285718 198.977082,39.0260529 C198.977082,31.1822804 196.183333,25.8485039 189.354173,23.6522424 C187.491663,23.0247434 183.145833,22.7109889 181.283333,22.7109889 C179.731253,22.7109889 161.416663,22.0834899 157.381242,21.4559909 C154.897912,21.1422364 154.277082,19.5734839 154.277082,17.3772224 C154.277082,15.1809609 154.587502,13.6122084 157.691662,12.9847094 C161.416662,12.3572105 176.006252,12.3572105 177.558332,12.9847094 C179.420832,13.6122084 180.041662,14.8672164 180.041662,16.4359689 L180.041662,17.6909769 L197.114582,17.6909769 C197.114582,16.4359689 196.804162,15.4947154 196.804162,14.5534619 C195.872922,6.08217031 191.216672,1.37591292 182.835412,0.748403854 C174.454162,-0.192849645 155.208332,0.120904891 149.310412,1.06215839 C143.722922,2.31716642 138.135422,5.76842588 138.135422,17.3772224 C138.135422,26.7897574 142.481252,31.4960249 149.931252,33.0647874 C152.104162,33.3785319 158.312492,33.6922864 159.243742,33.6922864 C161.416662,34.0060409 177.558332,34.6335399 178.800002,34.9472944 L178.800003,34.9472944 Z M111.439593,34.6335399 L92.50417,34.6335399 L100.575,12.9847094 L103.36875,12.9847094 L111.439593,34.6335399 Z M115.164592,45.9285718 L118.889583,55.6548714 L137.204172,55.6548714 L114.233342,1.06215839 L89.4,1.06215839 L66.73959,55.6548714 L85.05417,55.6548714 L88.77917,45.6148273 L115.164593,45.9285718 L115.164592,45.9285718 Z M17.69375,37.7710448 C18.00417,40.9085599 19.55625,41.5360588 21.10833,41.8498134 C23.59168,42.4773123 41.28542,42.4773123 44.38958,41.8498134 C46.5625,41.5360588 48.11458,39.9673064 48.425,38.0847994 C48.425,37.1435459 48.73543,35.5747934 48.73543,34.9472944 L66.42917,34.9472944 C66.42917,36.2022924 66.42917,39.3398074 66.11875,42.1635679 C65.1875,48.7523323 61.4625,54.0861088 53.39166,55.9686158 C47.80417,57.2236239 20.79792,57.2236239 14.58959,55.9686158 C8.07084,54.3998634 2.48334,50.3211049 0.93126,43.4185658 C-0.31042,37.1435459 -0.31042,20.8284819 0.93126,13.9259629 C1.86251,8.9059308 6.51876,2.94466539 14.27917,1.37591292 C21.41875,0.120904891 46.5625,-0.192849645 53.39166,1.37591292 C62.39375,3.57216435 65.1875,11.7297014 65.49792,14.5534619 C65.80834,17.6909769 65.80834,19.8872284 65.80834,21.1422364 L48.11458,21.1422364 C48.11458,19.8872284 48.425,16.4359689 45.32083,15.4947154 C43.45834,14.8672164 26.07501,14.8672164 21.72917,15.1809609 C19.55625,15.4947154 18.31459,16.4359689 18.00417,18.6322304 C17.07292,23.0247434 17.07292,33.6922864 17.69375,37.7710448 Z" id="path5"></path>
        </g>
    </g>
</svg>